<?xml version="1.0" standalone="no"?>
<!DOCTYPE svg PUBLIC "-//W3C//DTD SVG 20010904//EN"
 "http://www.w3.org/TR/2001/REC-SVG-20010904/DTD/svg10.dtd">
<svg version="1.0" xmlns="http://www.w3.org/2000/svg"
 width="340.000000pt" height="270.000000pt" viewBox="0 0 340.000000 270.000000"
 preserveAspectRatio="xMidYMid meet">

<g transform="translate(0.000000,270.000000) scale(0.100000,-0.100000)"
fill="#000000" stroke="none">
<path d="M2367 2666 c3 -22 -3 -58 -18 -103 -20 -58 -24 -88 -24 -205 0 -75 3
-134 6 -130 4 4 12 25 19 47 24 77 38 94 108 129 37 19 77 45 89 60 12 14 40
34 63 46 l40 20 0 -24 c0 -13 -8 -30 -17 -37 -9 -8 -29 -42 -45 -77 -34 -74
-77 -120 -213 -225 l-100 -77 -45 48 c-25 26 -70 75 -101 108 -31 34 -71 90
-88 127 -52 109 -139 164 -243 153 -64 -6 -99 -21 -147 -62 -18 -15 -47 -30
-64 -33 -46 -10 -39 -24 17 -36 61 -13 86 -47 86 -118 0 -78 39 -212 80 -275
45 -70 135 -169 161 -177 10 -4 19 -10 19 -14 0 -9 -137 -102 -207 -142 l-42
-24 -71 70 c-57 56 -73 79 -85 123 -29 99 -120 171 -218 172 -50 0 -191 -53
-252 -94 l-30 -21 55 -7 c86 -12 94 -27 87 -167 -4 -63 -9 -116 -12 -120 -9
-8 -247 75 -325 114 -36 18 -99 42 -140 55 -41 12 -94 33 -118 47 -23 14 -42
20 -42 15 0 -12 45 -68 80 -99 33 -29 262 -155 322 -178 27 -10 48 -21 48 -25
0 -3 -17 -14 -37 -24 -45 -21 -116 -28 -330 -30 -157 -1 -189 -7 -140 -25 36
-14 49 -35 41 -67 l-7 -28 26 17 c35 23 99 22 127 -1 l23 -19 -43 -34 c-52
-42 -66 -68 -85 -159 -21 -99 -20 -100 24 -52 21 23 44 42 50 42 6 0 14 0 17
0 3 0 7 -87 9 -192 1 -106 4 -197 5 -203 3 -16 18 38 19 71 1 17 7 37 15 43 8
7 22 41 32 77 18 69 34 73 37 10 2 -40 14 -48 21 -14 3 13 15 70 26 127 36
174 103 334 175 419 l34 39 81 -18 c73 -15 85 -22 123 -61 23 -24 56 -54 72
-65 22 -16 27 -25 19 -33 -9 -9 -22 -8 -55 3 -67 22 -119 30 -119 17 0 -20 66
-71 143 -111 43 -22 106 -59 142 -84 45 -30 79 -46 112 -50 26 -3 76 -15 111
-26 34 -10 71 -19 82 -19 10 0 31 -16 47 -36 l27 -37 75 7 c41 3 76 8 79 11 2
2 -10 16 -27 30 -17 15 -31 30 -31 34 0 9 176 29 333 37 76 5 117 4 117 -3 0
-6 -50 -59 -111 -119 -240 -236 -301 -298 -292 -301 5 -2 29 5 54 16 24 11 45
18 47 16 3 -2 -9 -26 -25 -52 -41 -67 -76 -83 -190 -83 -90 0 -92 0 -134 36
-61 51 -91 64 -162 71 -51 4 -75 1 -140 -21 -99 -35 -123 -35 -180 -2 -69 41
-133 44 -234 12 -45 -15 -102 -41 -125 -59 -48 -37 -123 -130 -108 -135 5 -2
30 12 54 31 43 32 132 65 144 52 7 -6 13 -1 -83 -68 -44 -30 -99 -60 -123 -67
-24 -6 -60 -27 -81 -46 -43 -38 -147 -191 -138 -201 4 -3 33 18 67 47 59 51
61 52 85 36 14 -9 25 -25 25 -36 0 -11 -28 -52 -63 -91 -76 -87 -107 -129
-107 -146 0 -15 66 -18 75 -3 3 5 32 23 65 41 33 17 72 48 87 68 40 52 75 80
99 81 28 0 34 -17 34 -91 0 -32 4 -59 9 -59 6 0 31 29 56 65 26 36 51 65 56
65 10 0 5 -119 -6 -157 -6 -19 -4 -23 16 -23 18 0 29 11 42 41 11 22 44 63 74
92 30 28 66 75 80 102 49 96 79 113 141 75 40 -24 69 -70 78 -124 9 -57 11
-59 44 -35 32 24 44 20 67 -24 9 -18 26 -42 39 -53 l23 -22 -6 50 c-3 27 0 73
7 103 16 67 8 100 -36 141 -19 18 -34 35 -34 38 0 8 63 25 120 32 63 8 76 13
138 61 45 34 45 34 123 27 106 -9 133 3 154 66 19 56 100 154 91 110 -2 -14
-20 -63 -40 -110 -23 -54 -36 -101 -36 -130 l0 -45 19 31 c26 42 35 46 65 33
21 -10 30 -9 52 6 26 17 27 17 18 -1 -13 -29 -18 -334 -5 -347 8 -8 11 -6 11
7 0 10 38 57 84 105 47 47 90 100 97 116 10 26 13 27 16 10 10 -47 14 -47 46
-5 68 91 77 105 77 128 0 34 24 84 59 124 35 40 56 84 71 155 17 74 5 123 -51
205 -47 70 -49 75 -49 143 0 100 12 133 69 189 l50 49 14 -34 c7 -19 19 -51
26 -72 10 -30 16 -36 26 -27 8 6 15 23 17 38 3 25 5 23 37 -28 40 -65 100
-130 118 -130 11 0 13 108 13 558 0 539 -1 560 -19 576 -21 20 -53 15 -84 -12
-9 -8 -19 -13 -22 -11 -3 4 -32 69 -77 180 -7 15 -8 42 -4 64 l8 40 26 -32
c15 -17 39 -49 54 -71 15 -23 37 -46 49 -52 l21 -12 -7 104 c-5 71 -13 115
-26 142 -11 21 -18 41 -15 44 3 3 23 0 45 -6 21 -7 41 -12 45 -12 3 0 6 25 6
55 l0 55 -314 0 -315 0 6 -34z m404 -392 c12 -25 19 -47 17 -49 -13 -11 -71
-35 -75 -31 -3 3 0 18 6 33 6 16 12 43 14 61 3 44 15 40 38 -14z m-209 -196
c-16 -34 -39 -72 -50 -82 -12 -11 -22 -25 -22 -33 0 -8 -7 -28 -16 -44 -8 -17
-13 -33 -11 -36 3 -2 27 10 55 26 27 17 57 31 67 31 15 0 17 -6 11 -46 -3 -26
-6 -70 -6 -99 l0 -53 -60 -43 c-33 -24 -72 -61 -85 -82 -14 -21 -30 -35 -34
-32 -12 7 -51 92 -51 110 0 11 6 14 25 9 14 -3 32 -3 41 0 14 5 10 13 -20 42
-46 45 -60 74 -75 153 -12 60 -11 66 7 80 11 9 50 42 88 73 78 63 157 112 162
99 2 -5 -10 -38 -26 -73z m347 -272 c23 -24 23 -24 3 -35 -26 -14 -72 -14 -72
-1 0 14 30 60 39 60 4 0 18 -11 30 -24z m-158 -79 c-11 -29 -31 -37 -31 -12 0
9 8 32 17 53 16 35 17 36 20 11 2 -14 -1 -37 -6 -52z m-481 -101 l64 -126 -27
-28 c-35 -36 -34 -43 3 -29 26 10 32 8 55 -13 25 -23 27 -24 39 -7 10 13 21
15 45 11 34 -7 35 -6 21 30 -8 22 -7 26 9 26 10 0 23 -12 30 -26 12 -27 6 -90
-10 -100 -5 -3 -18 -27 -30 -54 -11 -27 -28 -51 -36 -54 -32 -13 -402 -56
-493 -59 l-95 -2 -22 44 c-13 25 -21 47 -18 49 2 2 19 -5 38 -17 47 -29 52
-26 24 12 -37 49 -49 76 -68 152 -9 39 -20 77 -23 86 -6 13 5 22 47 42 30 14
108 60 173 103 175 116 175 116 193 99 9 -8 45 -70 81 -139z m-849 -301 c22
-14 51 -30 64 -35 24 -9 35 -40 15 -40 -21 0 -140 73 -140 86 0 20 15 17 61
-11z m170 -86 c23 -11 39 -22 37 -24 -9 -9 -88 19 -88 31 0 18 3 18 51 -7z
m985 -65 c17 -66 -26 -144 -79 -144 -12 0 -42 -9 -66 -20 -24 -11 -46 -18 -50
-15 -3 3 4 22 14 42 18 32 45 50 98 67 10 3 27 26 38 51 23 51 36 57 45 19z
m-993 -540 c41 -14 47 -19 47 -45 0 -31 23 -49 64 -49 22 0 44 -16 35 -24 -2
-2 -25 -7 -51 -10 -47 -7 -47 -7 -67 32 -11 21 -36 53 -55 70 -54 47 -49 52
27 26z m-20 -134 c13 -1 -22 -30 -35 -30 -4 0 -8 9 -8 21 0 15 4 19 16 15 9
-3 21 -6 27 -6z"/>
</g>
</svg>
