<svg id="svg" version="1.1" xmlns="http://www.w3.org/2000/svg" xmlns:xlink="http://www.w3.org/1999/xlink" width="400" height="400" viewBox="0, 0, 400,400"><g id="svgg"><path id="path0" d="M301.855 3.798 C 302.554 3.885,303.696 3.885,304.395 3.798 C 305.093 3.712,304.521 3.641,303.125 3.641 C 301.729 3.641,301.157 3.712,301.855 3.798 M205.455 105.371 L 203.320 107.617 205.566 105.482 C 207.653 103.499,207.991 103.125,207.701 103.125 C 207.640 103.125,206.630 104.136,205.455 105.371 M188.384 271.374 C 188.978 271.464,189.857 271.461,190.337 271.369 C 190.818 271.276,190.332 271.203,189.258 271.205 C 188.184 271.208,187.791 271.284,188.384 271.374 M57.612 297.363 L 52.539 302.539 57.715 297.467 C 62.523 292.755,63.068 292.188,62.787 292.188 C 62.731 292.188,60.401 294.517,57.612 297.363 M278.032 296.761 C 278.518 296.854,279.221 296.851,279.594 296.753 C 279.968 296.655,279.570 296.579,278.711 296.583 C 277.852 296.587,277.546 296.667,278.032 296.761 M6.431 337.598 L 4.492 339.648 6.543 337.710 C 8.449 335.909,8.773 335.547,8.481 335.547 C 8.420 335.547,7.497 336.470,6.431 337.598 M33.963 353.418 L 32.617 354.883 34.082 353.537 C 35.445 352.284,35.726 351.953,35.428 351.953 C 35.363 351.953,34.704 352.612,33.963 353.418 " stroke="none" fill="#d3d1d1" fill-rule="evenodd"></path><path id="path1" d="M343.491 52.344 C 343.491 53.955,343.560 54.614,343.644 53.809 C 343.728 53.003,343.728 51.685,343.644 50.879 C 343.560 50.073,343.491 50.732,343.491 52.344 M321.966 261.719 C 321.966 262.471,322.046 262.778,322.144 262.402 C 322.243 262.026,322.243 261.411,322.144 261.035 C 322.046 260.659,321.966 260.967,321.966 261.719 M290.724 263.086 C 290.728 263.945,290.808 264.251,290.901 263.765 C 290.995 263.279,290.991 262.576,290.893 262.202 C 290.796 261.829,290.719 262.227,290.724 263.086 M57.804 297.559 L 54.492 300.977 57.910 297.665 C 61.085 294.589,61.506 294.141,61.222 294.141 C 61.163 294.141,59.625 295.679,57.804 297.559 " stroke="none" fill="#545454" fill-rule="evenodd"></path><path id="path2" d="M258.984 18.555 C 258.036 19.521,257.347 20.313,257.455 20.313 C 257.562 20.313,258.426 19.521,259.375 18.555 C 260.324 17.588,261.012 16.797,260.905 16.797 C 260.797 16.797,259.933 17.588,258.984 18.555 M329.871 221.973 L 327.539 224.414 329.980 222.083 C 331.323 220.800,332.422 219.702,332.422 219.641 C 332.422 219.353,332.036 219.705,329.871 221.973 " stroke="none" fill="#7c7c7c" fill-rule="evenodd"></path><path id="path3" d="M208.764 102.051 L 207.617 103.320 208.887 102.173 C 209.585 101.542,210.156 100.971,210.156 100.903 C 210.156 100.602,209.834 100.867,208.764 102.051 M185.645 271.363 C 186.021 271.461,186.636 271.461,187.012 271.363 C 187.388 271.265,187.080 271.184,186.328 271.184 C 185.576 271.184,185.269 271.265,185.645 271.363 M191.504 271.363 C 191.880 271.461,192.495 271.461,192.871 271.363 C 193.247 271.265,192.939 271.184,192.188 271.184 C 191.436 271.184,191.128 271.265,191.504 271.363 M273.926 308.472 C 274.302 308.571,274.917 308.571,275.293 308.472 C 275.669 308.374,275.361 308.294,274.609 308.294 C 273.857 308.294,273.550 308.374,273.926 308.472 M245.410 345.191 C 245.786 345.289,246.401 345.289,246.777 345.191 C 247.153 345.093,246.846 345.013,246.094 345.013 C 245.342 345.013,245.034 345.093,245.410 345.191 M6.543 345.979 C 7.026 346.072,7.817 346.072,8.301 345.979 C 8.784 345.886,8.389 345.810,7.422 345.810 C 6.455 345.810,6.060 345.886,6.543 345.979 " stroke="none" fill="#949494" fill-rule="evenodd"></path><path id="path4" d="M297.266 4.146 C 264.233 7.160,249.055 21.630,229.298 68.945 C 221.809 86.881,218.840 91.759,209.316 101.787 C 182.641 129.872,156.037 164.148,109.891 229.883 C 80.570 271.651,73.558 280.960,62.226 293.164 C 50.953 305.304,34.347 318.964,18.756 328.920 C 0.522 340.565,-2.514 348.593,12.695 344.949 C 15.863 344.190,24.989 342.447,28.027 342.021 C 29.918 341.755,29.847 341.562,29.281 345.476 C 28.653 349.824,29.919 354.492,31.727 354.492 C 32.050 354.492,41.784 346.318,53.358 336.328 C 64.932 326.338,77.730 315.301,81.799 311.802 L 89.197 305.440 96.845 301.588 C 148.125 275.756,180.949 266.984,204.253 272.882 C 209.502 274.211,210.811 274.968,213.082 277.989 C 214.154 279.416,215.928 281.245,217.024 282.055 C 220.068 284.304,225.995 293.891,232.587 307.227 C 240.709 323.658,240.728 326.215,232.804 336.253 C 230.757 338.847,230.396 340.233,231.410 341.619 C 231.788 342.136,231.845 342.586,231.593 343.057 C 230.059 345.924,236.226 349.288,243.321 349.455 C 249.323 349.596,248.671 348.265,251.722 366.602 C 253.829 379.258,255.523 389.759,256.874 398.535 L 257.100 400.000 267.993 400.000 L 278.887 400.000 278.689 398.926 C 278.580 398.335,277.094 387.129,275.385 374.023 C 273.677 360.918,272.186 349.653,272.071 348.989 C 271.876 347.854,271.960 347.755,273.497 347.294 C 275.650 346.649,277.184 345.055,277.695 342.933 C 277.923 341.986,278.465 340.156,278.899 338.867 C 280.032 335.500,279.949 334.940,278.144 333.801 C 276.801 332.953,276.495 332.475,275.796 330.128 C 274.814 326.832,273.355 325.251,270.653 324.559 C 269.606 324.290,268.750 323.863,268.750 323.608 C 268.750 323.353,268.646 322.627,268.520 321.994 C 268.295 320.870,268.340 320.832,270.470 320.355 C 275.747 319.174,279.796 314.215,278.337 310.721 C 277.333 308.319,274.467 307.919,270.085 309.568 C 266.835 310.791,267.005 310.953,266.428 306.082 L 265.942 301.982 268.279 299.122 C 271.370 295.339,271.702 295.073,272.501 295.737 C 273.470 296.541,279.743 296.665,283.136 295.947 C 290.694 294.349,294.655 290.703,296.070 284.042 L 296.680 281.169 303.516 278.715 C 307.275 277.365,311.846 275.788,313.672 275.209 C 317.747 273.918,321.524 272.104,322.664 270.890 L 323.519 269.980 321.988 269.198 C 319.644 268.002,319.245 267.353,320.206 266.297 C 323.875 262.267,321.229 254.367,315.649 252.695 C 313.167 251.952,311.200 252.713,308.594 255.428 C 305.515 258.635,302.062 260.609,294.798 263.315 C 290.644 264.863,290.626 264.859,290.620 262.402 C 290.617 260.941,290.337 259.864,289.646 258.655 C 288.689 256.982,288.686 256.949,289.435 256.311 C 289.852 255.955,293.587 252.857,297.734 249.427 C 316.008 234.309,319.121 231.702,323.398 227.926 C 342.173 211.353,350.003 197.311,358.173 165.555 C 365.492 137.110,360.951 109.285,346.483 93.921 C 341.213 88.325,340.249 81.678,342.348 65.397 C 342.904 61.083,343.359 55.800,343.359 53.658 L 343.359 49.764 351.074 45.619 C 357.871 41.967,365.242 38.497,367.871 37.710 C 369.272 37.291,368.980 36.951,364.746 34.071 C 354.371 27.014,348.856 24.188,342.937 22.895 C 342.072 22.706,341.954 22.508,342.102 21.499 C 343.441 12.373,317.431 2.307,297.266 4.146 M231.889 278.625 C 234.630 282.312,236.140 286.462,236.702 291.858 C 236.903 293.782,237.622 296.939,238.372 299.183 C 239.096 301.352,239.554 302.991,239.389 302.827 C 237.117 300.555,228.747 284.760,227.659 280.691 C 226.732 277.225,229.752 275.751,231.889 278.625 M269.948 315.248 C 270.997 315.810,270.893 316.572,269.564 318.060 C 268.208 319.577,268.145 319.534,267.847 316.895 C 267.596 314.677,268.118 314.269,269.948 315.248 M271.326 335.698 C 271.204 336.152,271.099 336.875,271.093 337.305 C 271.073 338.675,270.325 337.084,270.318 335.657 C 270.314 334.670,270.445 334.450,270.930 334.636 C 271.336 334.792,271.471 335.156,271.326 335.698 M246.484 335.481 C 246.484 335.659,246.833 337.725,247.260 340.071 C 248.274 345.651,248.330 345.312,246.387 345.313 L 244.727 345.313 244.859 343.407 C 245.022 341.055,244.204 339.329,242.587 338.613 C 241.217 338.007,241.163 337.834,242.090 337.023 C 243.687 335.627,246.484 334.645,246.484 335.481 " stroke="none" fill="#1c1c1c" fill-rule="evenodd"></path></g></svg>