<?xml version="1.0" standalone="no"?>
<!DOCTYPE svg PUBLIC "-//W3C//DTD SVG 20010904//EN"
 "http://www.w3.org/TR/2001/REC-SVG-20010904/DTD/svg10.dtd">
<svg version="1.0" xmlns="http://www.w3.org/2000/svg"
 width="400.000000pt" height="300.000000pt" viewBox="0 0 400.000000 300.000000"
 preserveAspectRatio="xMidYMid meet">

<g transform="translate(0.000000,300.000000) scale(0.100000,-0.100000)"
fill="#000000" stroke="none">
<path d="M2125 2330 c-9 -16 -13 -30 -11 -30 3 0 12 14 21 30 9 17 13 30 11
30 -3 0 -12 -13 -21 -30z"/>
<path d="M2090 2270 c-6 -11 -8 -20 -6 -20 3 0 10 9 16 20 6 11 8 20 6 20 -3
0 -10 -9 -16 -20z"/>
<path d="M2600 2208 c0 -23 75 -89 92 -83 9 4 18 0 21 -9 4 -9 12 -16 18 -16
8 0 6 7 -4 18 -10 10 -17 25 -17 33 0 11 -2 11 -8 1 -7 -9 -13 -7 -28 9 -33
36 -74 62 -74 47z"/>
<path d="M1976 2188 c-42 -15 -54 -23 -45 -29 10 -7 7 -9 -11 -7 -30 3 -170
-33 -170 -44 0 -4 19 -11 42 -15 35 -5 39 -8 23 -15 -14 -6 -10 -7 15 -4 19 3
53 1 75 -4 l40 -9 -48 4 c-30 3 -46 1 -42 -5 4 -6 -8 -10 -27 -11 -25 -1 -18
-4 26 -13 33 -6 61 -17 64 -23 2 -7 10 -13 17 -13 8 0 11 -7 8 -20 -3 -12 -8
-18 -11 -15 -3 3 -12 -1 -21 -8 -9 -8 -64 -35 -122 -60 l-107 -47 -47 20 c-59
25 -59 25 -75 -6 -11 -20 -19 -24 -40 -19 -36 9 -43 20 -30 45 10 18 9 24 -1
31 -8 5 -18 9 -23 9 -11 0 2 -152 14 -164 5 -5 25 -10 44 -10 25 -1 45 -11 68
-33 18 -18 61 -45 96 -61 62 -30 63 -30 41 -46 -13 -8 -20 -19 -16 -23 4 -4
-7 -15 -25 -25 -18 -9 -26 -17 -18 -18 25 0 380 113 380 122 0 4 -49 8 -109 8
-93 0 -116 -3 -148 -21 -21 -11 -30 -14 -21 -6 10 7 15 16 12 19 -3 4 3 5 13
5 13 -2 18 5 17 21 -1 23 5 26 44 22 16 -1 22 4 22 20 0 12 4 19 9 16 5 -3 11
1 14 8 4 10 -10 19 -49 32 -30 9 -54 19 -54 23 0 3 39 22 86 41 78 31 122 47
94 33 -5 -2 -10 -11 -10 -19 0 -10 5 -12 12 -7 7 4 24 7 38 7 22 -1 22 -1 3 3
-13 2 -23 9 -23 14 0 13 44 11 75 -3 20 -9 31 -9 45 -1 14 10 21 8 34 -6 9
-10 16 -25 14 -32 -2 -8 4 -13 13 -11 11 1 48 -37 104 -108 57 -72 94 -110
107 -110 11 0 16 5 13 10 -3 6 -2 10 2 10 5 0 14 9 20 19 10 16 4 30 -48 100
-32 45 -59 83 -59 84 0 2 15 1 33 -1 l32 -5 -19 22 c-11 11 -24 21 -30 21 -6
0 -61 44 -122 98 -154 135 -162 141 -168 135 -3 -4 -6 -15 -6 -25 0 -22 -13
-23 -46 -2 -13 9 -32 18 -42 19 -43 4 -92 18 -92 26 0 5 34 9 75 9 73 0 97 11
53 24 -21 7 -19 9 16 22 40 14 57 25 40 23 -5 0 -35 -10 -68 -21z m89 -108 c3
-5 1 -10 -4 -10 -6 0 -11 5 -11 10 0 6 2 10 4 10 3 0 8 -4 11 -10z m-75 -94
c0 -2 -7 -7 -16 -10 -8 -3 -12 -2 -9 4 6 10 25 14 25 6z m125 -56 c11 -12 13
-20 6 -20 -7 0 -9 -4 -6 -10 7 -11 -15 -13 -39 -4 -19 7 -21 40 -3 47 20 9 23
8 42 -13z"/>
<path d="M2094 1932 c3 -5 0 -13 -6 -15 -9 -4 -10 -6 -1 -6 17 -1 25 16 12 25
-7 4 -9 3 -5 -4z"/>
<path d="M2500 2141 c-15 -29 -12 -49 10 -71 44 -44 129 -3 100 49 -22 43 -91
56 -110 22z m50 -1 c0 -5 -9 -14 -20 -20 -16 -8 -20 -8 -20 4 0 13 13 23 33
25 4 1 7 -3 7 -9z"/>
<path d="M2895 2130 c6 -9 0 -11 -23 -5 -22 4 -41 1 -62 -11 -38 -23 -39 -44
-1 -44 16 0 36 -3 45 -6 29 -11 16 -24 -25 -24 -26 0 -38 -4 -34 -11 5 -7 -5
-8 -32 -3 -47 8 -49 10 -34 28 13 15 -4 26 -40 26 -27 0 -24 -13 17 -70 25
-34 31 -50 21 -50 -17 0 -63 -99 -50 -110 9 -8 123 -34 128 -28 5 5 25 108 25
128 0 14 -10 21 -35 26 -51 9 -43 24 13 23 40 -1 43 -2 22 -10 -26 -9 78 -4
154 7 l39 6 -33 14 c-63 27 -102 56 -91 67 8 8 20 4 43 -12 l33 -23 -32 31
c-18 17 -33 35 -33 40 0 6 -5 13 -12 17 -7 5 -8 3 -3 -6z"/>
<path d="M1730 2096 c0 -2 8 -10 18 -17 15 -13 16 -12 3 4 -13 16 -21 21 -21
13z"/>
<path d="M1881 1980 c-13 -11 -18 -20 -13 -20 6 0 14 5 18 11 4 8 9 7 15 -2 6
-10 8 -7 6 9 0 12 -1 22 -2 22 0 -1 -11 -10 -24 -20z"/>
<path d="M2320 1982 c0 -7 -5 -10 -11 -6 -18 11 6 -28 30 -50 35 -32 43 -5 11
34 -16 19 -30 29 -30 22z"/>
<path d="M2635 1980 c-3 -5 -4 -14 0 -20 3 -5 -3 -18 -15 -30 -38 -38 1 -20
43 20 l42 39 -32 1 c-17 0 -35 -4 -38 -10z"/>
<path d="M2141 1816 c-6 -7 -23 -12 -39 -10 -26 3 -26 3 -3 -4 l25 -8 -28 -22
c-16 -12 -25 -22 -19 -22 5 0 27 18 48 40 21 22 36 40 33 40 -3 0 -11 -6 -17
-14z"/>
<path d="M1900 1730 c0 -5 5 -10 10 -10 6 0 10 5 10 10 0 6 -4 10 -10 10 -5 0
-10 -4 -10 -10z"/>
<path d="M2024 1708 l-19 -23 23 19 c21 18 27 26 19 26 -2 0 -12 -10 -23 -22z"/>
<path d="M795 1706 l-50 -12 34 -7 c18 -4 47 -7 63 -7 25 0 28 3 19 14 -9 11
-9 15 1 19 24 10 -15 6 -67 -7z"/>
<path d="M1840 1699 c0 -5 5 -7 10 -4 6 3 10 8 10 11 0 2 -4 4 -10 4 -5 0 -10
-5 -10 -11z"/>
<path d="M1388 1647 c-64 -29 -113 -53 -109 -55 14 -5 246 84 244 94 -3 17
-19 12 -135 -39z"/>
<path d="M1147 1678 c-27 -7 -45 -22 -66 -52 l-29 -42 -124 17 c-153 22 -175
23 -175 6 0 -10 41 -18 156 -31 85 -9 157 -19 159 -20 2 -2 -36 -45 -84 -95
-47 -50 -84 -91 -81 -91 29 0 102 40 142 79 37 37 64 53 107 65 60 17 78 30
53 40 -9 3 -15 18 -15 39 0 32 -2 34 -27 29 l-28 -5 28 36 c15 21 27 37 25 36
-2 -1 -20 -6 -41 -11z"/>
<path d="M1437 1506 c-59 -21 -106 -40 -105 -42 4 -3 210 54 216 60 2 3 2 9 1
13 -2 5 -52 -9 -112 -31z"/>
<path d="M1275 1410 c-216 -76 -280 -101 -297 -117 -10 -9 -17 -18 -15 -20 2
-1 65 17 141 42 129 43 138 44 161 29 23 -15 29 -14 95 11 67 26 88 40 77 52
-3 3 -22 -5 -42 -17 -49 -30 -56 -17 -15 25 20 21 28 35 19 34 -7 0 -63 -18
-124 -39z"/>
<path d="M2590 1155 c-19 -23 -8 -26 19 -4 16 13 18 19 8 19 -8 0 -20 -7 -27
-15z"/>
<path d="M2423 1100 c-12 -10 -48 -21 -79 -25 -53 -6 -112 -23 -89 -25 6 0 4
-4 -4 -9 -20 -13 -6 -28 32 -36 17 -4 58 -21 91 -38 l59 -31 -67 -63 c-60 -57
-109 -86 -206 -124 l-24 -10 42 -39 c50 -46 56 -64 10 -26 -56 45 -122 86
-148 92 -23 5 -100 98 -100 120 0 4 -14 29 -31 56 -26 40 -36 48 -61 48 l-30
0 18 -27 c50 -77 132 -219 128 -224 -2 -4 -20 -10 -39 -13 -33 -7 -35 -9 -35
-46 0 -31 -5 -42 -22 -51 l-23 -12 29 -12 c29 -12 28 -13 -50 -39 -43 -14 -88
-26 -99 -26 -70 -1 108 -44 230 -55 74 -7 243 9 257 23 5 5 0 25 -12 45 -34
57 -17 68 21 14 31 -45 37 -48 67 -43 43 6 179 66 247 107 30 18 88 61 128 95
65 54 76 60 92 48 12 -9 23 -10 36 -4 17 10 17 12 2 39 -16 28 -16 29 13 67
49 63 76 113 68 125 -4 7 -3 9 3 6 6 -4 13 0 17 8 3 8 3 15 1 15 -13 0 -175
-55 -199 -67 -49 -25 -165 -18 -230 14 l-55 27 71 53 c88 66 92 69 46 47 -33
-15 -39 -16 -60 -2 -22 14 -26 14 -45 -2z m327 -176 c17 -15 29 -29 26 -32 -3
-2 -21 9 -41 27 -43 37 -30 42 15 5z m10 -64 c5 -10 10 -22 10 -26 0 -10 -40
28 -52 49 -8 16 -7 17 11 8 11 -7 25 -20 31 -31z m-116 -23 c4 -19 3 -26 -4
-22 -5 3 -10 18 -10 32 0 32 5 28 14 -10z"/>
</g>
</svg>
